<svg width="244" height="34" viewBox="0 0 244 34" fill="none" xmlns="http://www.w3.org/2000/svg">
<path d="M170.37 19.918H172.491V22.2031H170.37V26H167.522V22.2031H160.151L160.069 20.4688L167.429 8.9375H170.37V19.918ZM163.058 19.918H167.522V12.793L167.312 13.168L163.058 19.918Z" fill="#807160"/>
<path d="M111.03 16.168H112.765C113.64 16.1602 114.331 15.9336 114.839 15.4883C115.354 15.043 115.612 14.3984 115.612 13.5547C115.612 12.7422 115.397 12.1133 114.968 11.668C114.546 11.2148 113.897 10.9883 113.022 10.9883C112.257 10.9883 111.628 11.2109 111.136 11.6562C110.644 12.0938 110.397 12.668 110.397 13.3789H107.55C107.55 12.5039 107.78 11.707 108.241 10.9883C108.71 10.2695 109.358 9.71094 110.187 9.3125C111.022 8.90625 111.956 8.70312 112.987 8.70312C114.69 8.70312 116.026 9.13281 116.995 9.99219C117.972 10.8438 118.46 12.0312 118.46 13.5547C118.46 14.3203 118.214 15.043 117.722 15.7227C117.237 16.3945 116.608 16.9023 115.835 17.2461C116.772 17.5664 117.483 18.0703 117.968 18.7578C118.46 19.4453 118.706 20.2656 118.706 21.2188C118.706 22.75 118.179 23.9688 117.124 24.875C116.077 25.7812 114.698 26.2344 112.987 26.2344C111.347 26.2344 110.003 25.7969 108.956 24.9219C107.909 24.0469 107.386 22.8828 107.386 21.4297H110.233C110.233 22.1797 110.483 22.7891 110.983 23.2578C111.491 23.7266 112.171 23.9609 113.022 23.9609C113.905 23.9609 114.601 23.7266 115.108 23.2578C115.616 22.7891 115.87 22.1094 115.87 21.2188C115.87 20.3203 115.604 19.6289 115.073 19.1445C114.542 18.6602 113.753 18.418 112.706 18.418H111.03V16.168Z" fill="#807160"/>
<path d="M66.21 26H54.7373V24.043L60.4209 17.8438C61.2412 16.9297 61.8232 16.168 62.167 15.5586C62.5186 14.9414 62.6943 14.3242 62.6943 13.707C62.6943 12.8945 62.4639 12.2383 62.0029 11.7383C61.5498 11.2383 60.9365 10.9883 60.1631 10.9883C59.2412 10.9883 58.5264 11.2695 58.0186 11.832C57.5107 12.3945 57.2568 13.1641 57.2568 14.1406H54.4092C54.4092 13.1016 54.6436 12.168 55.1123 11.3398C55.5889 10.5039 56.2646 9.85547 57.1396 9.39453C58.0225 8.93359 59.0381 8.70312 60.1865 8.70312C61.8428 8.70312 63.1475 9.12109 64.1006 9.95703C65.0615 10.7852 65.542 11.9336 65.542 13.4023C65.542 14.2539 65.2998 15.1484 64.8154 16.0859C64.3389 17.0156 63.5537 18.0742 62.46 19.2617L58.2881 23.7266H66.21V26Z" fill="#807160"/>
<path d="M8.98828 26H6.15234V12.3008L1.96875 13.7305V11.3281L8.625 8.87891H8.98828V26Z" fill="#807160"/>
<path d="M222.799 17.5391L223.725 8.9375H232.889V11.3984H226.092L225.623 15.4766C226.412 15.0234 227.303 14.7969 228.295 14.7969C229.92 14.7969 231.182 15.3164 232.08 16.3555C232.987 17.3945 233.44 18.793 233.44 20.5508C233.44 22.2852 232.94 23.668 231.94 24.6992C230.94 25.7227 229.569 26.2344 227.826 26.2344C226.264 26.2344 224.967 25.793 223.936 24.9102C222.912 24.0195 222.358 22.8477 222.272 21.3945H225.026C225.135 22.2227 225.432 22.8594 225.916 23.3047C226.401 23.7422 227.033 23.9609 227.815 23.9609C228.69 23.9609 229.369 23.6484 229.854 23.0234C230.346 22.3984 230.592 21.5469 230.592 20.4688C230.592 19.4297 230.323 18.6094 229.783 18.0078C229.244 17.3984 228.502 17.0938 227.557 17.0938C227.041 17.0938 226.604 17.1641 226.244 17.3047C225.885 17.4375 225.494 17.7031 225.073 18.1016L222.799 17.5391Z" fill="#FF7A00"/>
<circle cx="227.96" cy="17.7402" r="14.5" stroke="#FF7A00" stroke-width="2"/>
</svg>
