<svg width="48" height="48" viewBox="0 0 48 48" fill="none" xmlns="http://www.w3.org/2000/svg"><path d="M24.0022 47.1411C36.7817 47.1411 47.1416 36.7812 47.1416 24.0017C47.1416 11.2222 36.7817 0.862305 24.0022 0.862305C11.2227 0.862305 0.862793 11.2222 0.862793 24.0017C0.862793 36.7812 11.2227 47.1411 24.0022 47.1411Z" fill="#EDE6DE" stroke="#C0AD98" stroke-miterlimit="10"/><path d="M37.8754 37.1421H10.1245C10.7239 33.8997 12.44 30.9696 14.9746 28.8605C17.5093 26.7515 20.7026 25.5967 24 25.5967C27.2973 25.5967 30.4906 26.7515 33.0253 28.8605C35.56 30.9696 37.276 33.8997 37.8754 37.1421Z" fill="#C0AD98"/><path d="M35.6106 13.9211C35.6106 13.4034 31.905 12.0403 26.8751 11.9152C26.6508 9.95669 26.4437 8.92137 26.2064 6.96289H21.5604C21.3232 8.92137 21.0859 9.95669 20.8487 11.9152C15.8144 12.0403 12.1002 13.4034 12.1002 13.9211C12.1002 14.4388 15.9395 15.1549 21.3491 15.2541C20.6476 15.6408 20.0695 16.2175 19.6811 16.918C19.2927 17.6185 19.1098 18.4144 19.1533 19.2142C19.1533 20.4967 19.6628 21.7267 20.5697 22.6336C21.4766 23.5405 22.7066 24.05 23.9891 24.05C25.2717 24.05 26.5017 23.5405 27.4086 22.6336C28.3155 21.7267 28.8249 20.4967 28.8249 19.2142C28.8249 17.4153 28.1477 16.0823 26.6896 15.2498C31.974 15.1462 35.6106 14.4646 35.6106 13.9211Z" fill="#C0AD98"/></svg>