<svg width="27" height="27" viewBox="0 0 27 27" fill="none" xmlns="http://www.w3.org/2000/svg">
<g clip-path="url(#clip0_616:1900)">
<path d="M13.5015 27.0147C10.8311 27.0153 8.22039 26.2239 5.99969 24.7407C3.779 23.2575 2.04802 21.1491 1.02567 18.682C0.00331811 16.215 -0.264481 13.5002 0.256142 10.881C0.776766 8.26177 2.06243 5.85577 3.95053 3.96726C5.83863 2.07875 8.24435 0.792566 10.8635 0.271369C13.4826 -0.249828 16.1974 0.0173707 18.6647 1.03918C21.1319 2.06099 23.2407 3.7915 24.7244 6.01187C26.2081 8.23224 27 10.8427 27 13.5132C26.9961 17.0923 25.5728 20.5237 23.0423 23.0548C20.5117 25.5859 17.0806 27.01 13.5015 27.0147ZM13.5015 1.19746C11.0649 1.19687 8.68276 1.91892 6.65651 3.27229C4.63026 4.62566 3.05088 6.54955 2.11814 8.80062C1.1854 11.0517 0.941196 13.5288 1.41642 15.9187C1.89165 18.3086 3.06495 20.5038 4.78793 22.2268C6.51091 23.9498 8.70616 25.1231 11.096 25.5983C13.4859 26.0735 15.963 25.8293 18.2141 24.8966C20.4652 23.9638 22.3891 22.3845 23.7424 20.3582C25.0958 18.332 25.8178 15.9499 25.8173 13.5132C25.8165 10.2457 24.5192 7.1121 22.2101 4.80028C19.901 2.48845 16.769 1.18738 13.5015 1.18268V1.19746Z" fill="#C0AD98"/>
<path d="M21.8046 12.9062H5.19531V14.089H21.8046V12.9062Z" fill="#C0AD98"/>
<path d="M10.4233 20.982L9.28486 20.9702L5.92871 8.33211L7.07306 8.02754L9.87921 18.5987L12.919 8.01571L14.0574 8.02458L16.9049 18.575L19.9299 7.90039L21.0684 8.2227L17.4609 20.9554L16.3195 20.9465L13.469 10.3842L10.4233 20.982Z" fill="#C0AD98"/>
</g>
<defs>
<clipPath id="clip0_616:1900">
<rect width="27" height="27" fill="white"/>
</clipPath>
</defs>
</svg>
