<svg width="32" height="30" viewBox="0 0 32 30" fill="none" xmlns="http://www.w3.org/2000/svg">
<g clip-path="url(#clip0_616:1894)">
<path d="M25.618 7.97078V4.89062H24.3248V7.97724H21.2373V9.27006H24.3248V12.3567H25.618V9.27006H28.7055V7.97724L25.618 7.97078Z" fill="#C0AD98"/>
<path d="M24.9711 1.59C23.1571 1.59258 21.4142 2.29523 20.1059 3.55139C18.7975 4.80755 18.0249 6.5202 17.949 8.33208L14.2796 6.39284C15.4459 6.23276 16.5401 5.73633 17.4285 4.96427C18.6131 3.90811 19.3603 2.44763 19.5235 0.869246L19.5752 0.323027L19.045 0.180816C18.1813 -0.033917 17.2811 -0.0584203 16.407 0.109C15.5328 0.27642 14.7054 0.631764 13.9822 1.15043C13.2283 1.70524 12.6195 2.43367 12.2073 3.2739C11.7955 2.43249 11.1866 1.70292 10.4324 1.14721C9.70915 0.628539 8.88181 0.273185 8.00763 0.105765C7.13345 -0.0616555 6.23332 -0.0371423 5.36955 0.17759L4.83933 0.319792L4.8943 0.866011C5.05361 2.44483 5.80013 3.9063 6.98603 4.96104C7.90353 5.75533 9.03694 6.2583 10.2416 6.40577L0.348735 11.5609L0.313167 11.5835L0.274373 11.6094C0.252526 11.6237 0.231972 11.64 0.212946 11.6579L0.18385 11.6837L0.119186 11.7613C0.0989562 11.7936 0.0806111 11.8271 0.0642314 11.8615C0.0660532 11.8733 0.0660532 11.8853 0.0642314 11.897C0.0642314 11.9229 0.0480642 11.9488 0.0415982 11.9746C0.0400501 11.9886 0.0400501 12.0027 0.0415982 12.0166C0.0382173 12.0435 0.0382173 12.0706 0.0415982 12.0974C0.0415982 12.0974 0.0415982 12.0974 0.0415982 12.1201V29.3373C0.0415982 29.5087 0.109721 29.6731 0.230981 29.7943C0.352241 29.9156 0.516706 29.9837 0.688193 29.9837H23.8104C23.9819 29.9837 24.1464 29.9156 24.2676 29.7943C24.3889 29.6731 24.457 29.5087 24.457 29.3373V15.6204C24.6413 15.6365 24.8256 15.6462 25.0131 15.6462C26.8515 15.6068 28.6013 14.849 29.8875 13.5353C31.1738 12.2216 31.8941 10.4564 31.8941 8.61812C31.8941 6.77982 31.1738 5.01466 29.8875 3.70092C28.6013 2.38719 26.8515 1.62941 25.0131 1.59H24.9711ZM18.0525 9.84791C18.1512 10.4142 18.3207 10.9658 18.5568 11.4898H15.5114L13.6298 7.51113L18.0525 9.84791ZM14.7484 2.18146C15.7334 1.47224 16.9535 1.16904 18.156 1.33466C17.9326 2.36699 17.3856 3.30113 16.5944 4.00112C15.5777 4.85854 14.2641 5.28119 12.9379 5.17759C13.1371 3.98459 13.7848 2.91276 14.7484 2.18146ZM12.2234 7.56284L14.0759 11.4801H10.3451L12.2234 7.56284ZM7.8363 4.00758C7.04638 3.30658 6.49959 2.37287 6.27478 1.34112C7.47444 1.17244 8.69246 1.48025 9.66783 2.19859C10.6432 2.91692 11.2983 3.98863 11.4928 5.18405C10.1646 5.28178 8.85127 4.85341 7.8363 3.99142V4.00758ZM10.7783 7.60164L8.90642 11.506H3.28427L10.7783 7.60164ZM8.94198 28.7232H1.29276V12.7826H8.94198V28.707V28.7232ZM14.1794 28.7232H10.2352V12.7826H14.1794V28.7232ZM23.1218 28.7232H15.4726V12.7826H19.3134C20.2533 14.0569 21.5947 14.9779 23.1218 15.3974V28.7232ZM24.9711 14.3696C24.7836 14.3696 24.596 14.3696 24.415 14.3405C23.9741 14.2979 23.5399 14.2024 23.1218 14.0561C22.0522 13.695 21.1132 13.0258 20.4229 12.1327C19.7327 11.2397 19.3219 10.1625 19.2422 9.03666C19.2422 8.90415 19.2228 8.77163 19.2228 8.63266C19.2235 7.49878 19.5604 6.39055 20.191 5.44808C20.8216 4.5056 21.7175 3.77121 22.7656 3.33774C23.8136 2.90426 24.9667 2.79118 26.079 3.01278C27.1914 3.23438 28.213 3.78072 29.0148 4.58272C29.8165 5.38471 30.3624 6.40636 30.5835 7.5185C30.8045 8.63063 30.6907 9.78331 30.2566 10.8308C29.8224 11.8783 29.0873 12.7736 28.1442 13.4035C27.2011 14.0334 26.0923 14.3696 24.9581 14.3696H24.9711Z" fill="#C0AD98"/>
</g>
<defs>
<clipPath id="clip0_616:1894">
<rect width="32" height="30" fill="white"/>
</clipPath>
</defs>
</svg>
