<svg width="31" height="272" viewBox="0 0 31 272" fill="none" xmlns="http://www.w3.org/2000/svg">
<path d="M18.5901 198.478H20.7112V200.763H18.5901V204.56H15.7424V200.763H8.37134L8.28931 199.028L15.6487 187.497H18.5901V198.478ZM11.2776 198.478H15.7424V191.353L15.5315 191.728L11.2776 198.478Z" fill="#807160"/>
<path d="M10.3391 255.619L11.2649 247.018H20.429V249.479H13.6321L13.1633 253.557C13.9524 253.104 14.843 252.877 15.8352 252.877C17.4602 252.877 18.7219 253.396 19.6204 254.436C20.5266 255.475 20.9797 256.873 20.9797 258.631C20.9797 260.365 20.4797 261.748 19.4797 262.779C18.4797 263.803 17.1086 264.314 15.3665 264.314C13.804 264.314 12.5071 263.873 11.4758 262.99C10.4524 262.1 9.89771 260.928 9.81177 259.475H12.5657C12.675 260.303 12.9719 260.939 13.4563 261.385C13.9407 261.822 14.5735 262.041 15.3547 262.041C16.2297 262.041 16.9094 261.729 17.3938 261.104C17.886 260.479 18.1321 259.627 18.1321 258.549C18.1321 257.51 17.8625 256.689 17.3235 256.088C16.7844 255.479 16.0422 255.174 15.0969 255.174C14.5813 255.174 14.1438 255.244 13.7844 255.385C13.425 255.518 13.0344 255.783 12.6125 256.182L10.3391 255.619Z" fill="#807160"/>
<path d="M12.8704 135.207H14.6047C15.4797 135.199 16.1711 134.973 16.679 134.527C17.1946 134.082 17.4524 133.438 17.4524 132.594C17.4524 131.781 17.2375 131.152 16.8079 130.707C16.386 130.254 15.7375 130.027 14.8625 130.027C14.0969 130.027 13.468 130.25 12.9758 130.695C12.4836 131.133 12.2375 131.707 12.2375 132.418H9.38989C9.38989 131.543 9.62036 130.746 10.0813 130.027C10.55 129.309 11.1985 128.75 12.0266 128.352C12.8625 127.945 13.7961 127.742 14.8274 127.742C16.5305 127.742 17.8665 128.172 18.8352 129.031C19.8118 129.883 20.3 131.07 20.3 132.594C20.3 133.359 20.054 134.082 19.5618 134.762C19.0774 135.434 18.4485 135.941 17.675 136.285C18.6125 136.605 19.3235 137.109 19.8079 137.797C20.3 138.484 20.5461 139.305 20.5461 140.258C20.5461 141.789 20.0188 143.008 18.9641 143.914C17.9172 144.82 16.5383 145.273 14.8274 145.273C13.1868 145.273 11.843 144.836 10.7961 143.961C9.74927 143.086 9.22583 141.922 9.22583 140.469H12.0735C12.0735 141.219 12.3235 141.828 12.8235 142.297C13.3313 142.766 14.011 143 14.8625 143C15.7454 143 16.4407 142.766 16.9485 142.297C17.4563 141.828 17.7102 141.148 17.7102 140.258C17.7102 139.359 17.4446 138.668 16.9133 138.184C16.3821 137.699 15.593 137.457 14.5461 137.457H12.8704V135.207Z" fill="#807160"/>
<path d="M21.05 85.5195H9.57739V83.5625L15.261 77.3633C16.0813 76.4492 16.6633 75.6875 17.0071 75.0781C17.3586 74.4609 17.5344 73.8438 17.5344 73.2266C17.5344 72.4141 17.304 71.7578 16.843 71.2578C16.3899 70.7578 15.7766 70.5078 15.0032 70.5078C14.0813 70.5078 13.3665 70.7891 12.8586 71.3516C12.3508 71.9141 12.0969 72.6836 12.0969 73.6602H9.24927C9.24927 72.6211 9.48364 71.6875 9.95239 70.8594C10.429 70.0234 11.1047 69.375 11.9797 68.9141C12.8625 68.4531 13.8782 68.2227 15.0266 68.2227C16.6829 68.2227 17.9875 68.6406 18.9407 69.4766C19.9016 70.3047 20.3821 71.4531 20.3821 72.9219C20.3821 73.7734 20.1399 74.668 19.6555 75.6055C19.179 76.5352 18.3938 77.5938 17.3 78.7812L13.1282 83.2461H21.05V85.5195Z" fill="#807160"/>
<path d="M18.5283 26H15.6924V12.3008L11.5088 13.7305V11.3281L18.165 8.87891H18.5283V26Z" fill="#807160"/>
<circle cx="15.5" cy="255.82" r="14.5" stroke="#5B534A" stroke-width="2"/>
</svg>
