<svg width="145" height="41" viewBox="0 0 145 41" fill="none" xmlns="http://www.w3.org/2000/svg">
<path d="M12.015 30.746C12.015 30.9259 11.7249 31.0129 11.139 31.0129H10.3325C10.0193 30.9897 8.78353 30.9897 6.63116 31.0129H2.42504C2.15817 31.0129 1.83909 31.0129 1.48519 31.0129C1.17191 31.0129 0.992063 31.0129 0.945651 31.0129C0.382901 31.0129 0.104428 30.9143 0.104428 30.7112C0.104428 30.5778 0.156641 30.4965 0.272672 30.4791C0.382901 30.4559 0.818017 30.4443 1.57222 30.4443C2.54687 30.4211 3.15023 30.2993 3.37069 30.073C3.50413 29.87 3.56795 29.5683 3.56795 29.168V16.6947C3.56795 14.0318 3.54474 12.593 3.49833 12.3667C3.42871 12.007 3.12123 11.833 2.56428 11.833H0.864429C0.290077 11.8562 0 11.7692 0 11.5661C0 11.4327 0.371298 11.3283 1.10809 11.2644C3.0052 11.1078 4.62963 10.6379 5.96978 9.84887C6.0394 9.80246 6.43971 9.54719 7.1765 9.07727L8.45284 8.30566L8.58628 8.8104C8.58628 8.88002 8.58628 9.05986 8.58628 9.34994V25.6697C8.58628 27.7118 8.58628 28.8663 8.58628 29.1332C8.60948 30.0324 9.0562 30.4675 9.92643 30.4443C11.313 30.3979 12.015 30.4965 12.015 30.746Z" fill="black"/>
<path d="M43.1403 23.5466C43.1403 23.7265 43.1171 23.9411 43.0706 24.1848C42.7341 26.0935 42.4731 28.3909 42.299 31.0828C39.6071 30.99 36.9848 30.9494 34.4263 30.9494C34.2929 30.9494 34.0202 30.9552 33.6199 30.9668C33.0804 30.9784 32.6337 30.9842 32.274 30.9842L27.801 31.0596C27.6443 31.0596 27.4761 31.0654 27.2963 31.0828H27.0294C26.223 31.0828 25.8169 30.9494 25.8169 30.6767C25.8169 30.4968 25.9851 30.2764 26.3216 30.0037C29.0599 27.8339 31.3747 25.699 33.2718 23.6046C35.1689 21.5103 36.1146 18.8822 36.1146 15.7261C36.1146 13.6202 35.6099 12.0073 34.6004 10.8877C33.881 10.1044 32.9179 9.70994 31.7054 9.70994C30.696 9.70994 29.8605 9.99421 29.1992 10.5686C28.5378 11.1429 28.2071 11.7405 28.2071 12.367C28.2071 12.7267 28.3637 12.953 28.6712 13.04C28.7814 13.0632 29.1063 13.098 29.6401 13.1386C30.3305 13.1851 30.8874 13.4345 31.3109 13.8986C31.7344 14.357 31.9433 14.9371 31.9433 15.6333C31.9433 16.3295 31.7402 16.8922 31.3399 17.3332C30.9396 17.7683 30.4175 17.9887 29.7677 17.9887C28.9207 17.9887 28.2361 17.6638 27.714 17.0141C27.1918 16.3643 26.9308 15.4999 26.9308 14.4208C26.9308 12.5817 27.5515 11.1371 28.7989 10.0986C30.0462 9.05437 31.7518 8.53223 33.9274 8.53223C36.1726 8.53223 38.0001 9.15299 39.4099 10.3945C40.8254 11.636 41.5274 13.2431 41.5274 15.2156C41.5274 19.091 37.9479 22.9839 30.7946 26.9057H31.9027H34.9659C37.4083 26.8825 38.9922 26.8245 39.7115 26.7374C40.6746 26.6446 41.3244 26.4184 41.6609 26.0587C41.9103 25.7628 42.1192 25.1536 42.299 24.2254C42.4325 23.4538 42.6123 23.0709 42.8386 23.0709C43.0358 23.0709 43.1403 23.2275 43.1403 23.5466Z" fill="black"/>
<path d="M71.6026 24.4164C71.6026 26.4121 70.7033 28.0772 68.9107 29.4115C67.118 30.7459 64.8612 31.413 62.1461 31.413C60.2606 31.413 58.787 31.0533 57.7195 30.3339C56.652 29.6146 56.1241 28.6283 56.1241 27.3752C56.1241 26.5687 56.3794 25.9074 56.8841 25.391C57.3888 24.8747 58.0444 24.6194 58.8508 24.6194C60.3766 24.6194 61.1366 25.3156 61.1366 26.708C61.1366 27.7871 60.4056 28.5355 58.9494 28.9648C58.4331 29.1214 58.1778 29.3013 58.1778 29.5043C58.1778 29.7538 58.4969 30.0091 59.1351 30.2759C59.7733 30.5428 60.4056 30.682 61.038 30.682C62.674 30.682 63.9562 30.1309 64.8728 29.0344C65.7894 27.9379 66.2536 26.4005 66.2536 24.4222C66.2536 22.5135 65.7024 21.1559 64.6059 20.3495C63.8633 19.81 62.9931 19.5431 61.9836 19.5431H61.5137C61.3571 19.5431 61.096 19.5431 60.7421 19.5431C60.4752 19.5431 60.336 19.4561 60.336 19.2762C60.336 19.1196 60.3882 19.0209 60.4868 18.9745C60.5855 18.9281 60.9742 18.8527 61.6471 18.7367C62.5696 18.58 63.3354 18.0405 63.9504 17.1122C64.5653 16.184 64.8728 15.1165 64.8728 13.9098C64.8728 12.6799 64.5015 11.682 63.7647 10.9104C63.0221 10.1388 62.0591 9.7559 60.8697 9.7559C60.1097 9.7559 59.4368 9.92414 58.8508 10.2606C58.2649 10.5971 57.9748 10.9916 57.9748 11.4383C57.9748 11.6414 58.1198 11.7632 58.4157 11.8096C60.1388 12.1229 61.0032 12.8655 61.0032 14.0316C61.0032 14.6176 60.8233 15.0933 60.4578 15.4646C60.0981 15.8359 59.6224 16.0216 59.0365 16.0216C58.2474 16.0216 57.6267 15.7837 57.1742 15.3138C56.7216 14.8438 56.4954 14.2057 56.4954 13.3935C56.4954 11.9605 57.0871 10.8002 58.2765 9.91254C59.4658 9.0249 61.0148 8.58398 62.9177 8.58398C65.1165 8.58398 66.8859 9.04811 68.2319 9.98215C69.5778 10.9104 70.2508 12.1287 70.2508 13.6313C70.2508 14.8206 69.7403 15.8881 68.7192 16.828C67.6981 17.7678 66.3464 18.4234 64.6639 18.7773L64.6988 18.9455C66.3116 18.9687 67.7736 19.369 69.0731 20.1581C70.7614 21.1559 71.6026 22.5773 71.6026 24.4164Z" fill="black"/>
<path d="M101.649 28.3903C101.649 28.6397 101.568 28.7615 101.411 28.7615C101.231 28.7615 101.121 28.6803 101.074 28.5179C101.028 28.3554 100.987 27.8971 100.941 27.1487C100.918 26.5976 100.842 26.2437 100.703 26.0812C100.57 25.9188 100.274 25.8028 99.827 25.7331L97.8429 25.6345V28.9762C97.8429 29.6666 97.9531 30.0727 98.1794 30.1945C98.4057 30.3164 99.1541 30.3918 100.436 30.4092C100.976 30.4092 101.243 30.5194 101.243 30.7283C101.243 30.8965 100.68 30.9777 99.5602 30.9777C95.2728 30.9777 92.4823 31.0009 91.1828 31.0474C90.533 31.0706 90.0863 31.0822 89.8368 31.0822C89.4307 31.0822 89.2334 30.9893 89.2334 30.8153C89.2334 30.589 89.5699 30.4788 90.2313 30.4788C91.6295 30.4788 92.4127 30.3802 92.5809 30.1771C92.7492 29.9741 92.8304 29.6028 92.8304 29.069V25.7389H89.5119C86.762 25.7389 85.1085 25.7157 84.5516 25.6693C84.0817 25.6461 83.8496 25.5475 83.8496 25.3676C83.8496 25.1878 84.0062 24.8977 84.3195 24.4916C84.7663 23.9289 85.8802 22.5133 87.6612 20.2333C89.4365 17.9591 91.7861 15.0815 94.7101 11.6006C94.7333 11.5542 95.3483 10.8058 96.5666 9.34381C97.0365 8.76365 97.3672 8.46777 97.547 8.46777C97.7501 8.46777 97.8487 8.73464 97.8487 9.27419V24.8223C99.2179 24.7991 100.082 24.7295 100.442 24.6193C100.668 24.509 100.796 24.364 100.831 24.1957C100.866 24.0275 100.883 23.5402 100.883 22.7338C100.883 21.9273 100.993 21.527 101.219 21.527C101.376 21.527 101.463 21.6779 101.486 21.9796C101.509 22.2812 101.533 23.3081 101.556 25.0602C101.556 26.6324 101.573 27.52 101.608 27.7347C101.631 27.9435 101.649 28.164 101.649 28.3903ZM93.2075 14.8263C92.6215 15.4296 91.6701 16.6073 90.3473 18.3594C89.8078 19.0556 89.0478 20.0302 88.0615 21.2892C86.849 22.815 85.973 23.9463 85.4392 24.6889C86.8722 24.7759 88.5779 24.8223 90.5562 24.8223H92.9116C92.9696 20.5582 93.0683 17.2281 93.2075 14.8263Z" fill="black"/>
<path d="M134.555 23.849C134.555 26.0478 133.714 27.8521 132.031 29.2677C130.349 30.6832 128.208 31.3852 125.603 31.3852C123.671 31.3852 122.157 31.0081 121.061 30.2597C119.964 29.5113 119.413 28.4729 119.413 27.1443C119.413 26.3379 119.662 25.6881 120.167 25.195C120.672 24.7019 121.339 24.4524 122.169 24.4524C123.584 24.4524 124.286 25.137 124.286 26.5061C124.286 27.4924 123.602 28.2234 122.233 28.6933C121.67 28.8732 121.391 29.0646 121.391 29.2677C121.391 29.5809 121.768 29.9058 122.517 30.2423C123.265 30.5788 124.002 30.7471 124.721 30.7471C126.044 30.7471 127.106 30.1437 127.901 28.9312C128.695 27.7187 129.096 26.1058 129.096 24.0869C129.096 22.2478 128.736 20.8148 128.017 19.7938C127.297 18.7727 126.288 18.2621 124.988 18.2621C123.712 18.2621 122.453 18.7089 121.217 19.6081C121.264 18.9815 121.293 18.1867 121.316 17.2237C121.403 12.391 121.542 9.7803 121.722 9.37419C121.855 9.08412 123.091 8.95068 125.423 8.97389H131.445C131.939 8.97389 132.217 8.68381 132.287 8.09785C132.31 7.78457 132.408 7.62793 132.588 7.62793C132.745 7.62793 132.826 7.77297 132.826 8.06305C132.826 9.65847 132.704 10.8884 132.455 11.7644C132.298 12.3272 131.985 12.6985 131.515 12.8725C131.202 12.9827 130.685 13.0408 129.966 13.0408C130.012 13.0408 129.821 13.0408 129.392 13.0408C128.986 13.0408 128.585 13.0408 128.179 13.0408H122.192C122.099 14.2765 122.035 16.0112 121.989 18.2563C123.358 17.537 124.93 17.1773 126.7 17.1773C129.078 17.1773 130.981 17.7806 132.403 18.9931C133.847 20.2115 134.555 21.8301 134.555 23.849Z" fill="#C4C4C4"/>
<path d="M111 40L127 20.5L143 1" stroke="#FF7A00" stroke-width="3"/>
</svg>
