<svg width="194" height="54" viewBox="0 0 194 54" fill="none" xmlns="http://www.w3.org/2000/svg">
<path d="M16.5677 41.8134C16.5677 42.0503 16.1856 42.1649 15.4139 42.1649H14.3517C13.9391 42.1343 12.3116 42.1343 9.47676 42.1649H3.937C3.58551 42.1649 3.16525 42.1649 2.69915 42.1649C2.28653 42.1649 2.04966 42.1649 1.98853 42.1649C1.24735 42.1649 0.880581 42.035 0.880581 41.7675C0.880581 41.5918 0.94935 41.4848 1.10217 41.4619C1.24735 41.4313 1.82043 41.4161 2.81377 41.4161C4.09746 41.3855 4.89213 41.225 5.18249 40.927C5.35824 40.6596 5.44229 40.2623 5.44229 39.735V23.3068C5.44229 19.7995 5.41172 17.9045 5.35059 17.6065C5.2589 17.1328 4.85393 16.9036 4.12039 16.9036H1.88156C1.12509 16.9341 0.743042 16.8195 0.743042 16.5521C0.743042 16.3763 1.23207 16.2388 2.20248 16.1547C4.70111 15.9484 6.8406 15.3295 8.60568 14.2903C8.69737 14.2292 9.22461 13.893 10.195 13.2741L11.876 12.2578L12.0518 12.9226C12.0518 13.0143 12.0518 13.2511 12.0518 13.6332V35.1275C12.0518 37.8171 12.0518 39.3377 12.0518 39.6892C12.0824 40.8735 12.6707 41.4466 13.8169 41.4161C15.6431 41.3549 16.5677 41.4848 16.5677 41.8134Z" fill="black"/>
<path d="M57.5619 32.3307C57.5619 32.5676 57.5313 32.8503 57.4702 33.1712C57.027 35.6851 56.6832 38.711 56.454 42.2564C52.9085 42.1342 49.4547 42.0807 46.085 42.0807C45.9093 42.0807 45.5502 42.0883 45.0229 42.1036C44.3123 42.1189 43.724 42.1265 43.2502 42.1265L37.359 42.2259C37.1527 42.2259 36.9311 42.2335 36.6942 42.2564H36.3427C35.2806 42.2564 34.7457 42.0807 34.7457 41.7215C34.7457 41.4847 34.9673 41.1943 35.4105 40.8352C39.0171 37.9774 42.0659 35.1655 44.5645 32.4071C47.0631 29.6487 48.3086 26.1873 48.3086 22.0306C48.3086 19.2569 47.6438 17.1327 46.3143 15.6579C45.3668 14.6264 44.0984 14.1068 42.5014 14.1068C41.1719 14.1068 40.0715 14.4812 39.2005 15.2377C38.3294 15.9941 37.8938 16.7812 37.8938 17.6064C37.8938 18.0801 38.1001 18.3781 38.5051 18.4928C38.6503 18.5233 39.0782 18.5692 39.7812 18.6227C40.6905 18.6838 41.424 19.0124 41.9818 19.6236C42.5396 20.2273 42.8147 20.9914 42.8147 21.9083C42.8147 22.8252 42.5472 23.5664 42.02 24.1471C41.4928 24.7202 40.8051 25.0106 39.9493 25.0106C38.8337 25.0106 37.932 24.5827 37.2444 23.7269C36.5567 22.8711 36.2128 21.7326 36.2128 20.3113C36.2128 17.8891 37.0304 15.9865 38.6732 14.6187C40.3161 13.2434 42.5625 12.5557 45.4279 12.5557C48.385 12.5557 50.7919 13.3733 52.6487 15.0084C54.5131 16.6436 55.4377 18.7602 55.4377 21.3582C55.4377 26.4624 50.7232 31.5895 41.3017 36.7549H42.7612H46.7957C50.0125 36.7243 52.0985 36.6479 53.046 36.5333C54.3145 36.411 55.1703 36.113 55.6134 35.6393C55.942 35.2496 56.2171 34.4473 56.454 33.2247C56.6297 32.2084 56.8666 31.7041 57.1646 31.7041C57.4244 31.7041 57.5619 31.9104 57.5619 32.3307Z" fill="black"/>
<path d="M95.0488 33.4755C95.0488 36.104 93.8644 38.297 91.5033 40.0544C89.1423 41.8119 86.1699 42.6906 82.5939 42.6906C80.1105 42.6906 78.1697 42.2168 76.7638 41.2693C75.3578 40.3218 74.6625 39.0229 74.6625 37.3724C74.6625 36.3103 74.9987 35.4392 75.6635 34.7592C76.3282 34.0791 77.1917 33.7429 78.2538 33.7429C80.2634 33.7429 81.2643 34.6598 81.2643 36.4937C81.2643 37.9149 80.3016 38.9006 78.3837 39.466C77.7036 39.6724 77.3674 39.9092 77.3674 40.1767C77.3674 40.5052 77.7877 40.8414 78.6282 41.1929C79.4687 41.5444 80.3016 41.7278 81.1344 41.7278C83.2892 41.7278 84.9779 41.0019 86.1852 39.5577C87.3925 38.1136 88.0037 36.0887 88.0037 33.4831C88.0037 30.9692 87.2778 29.1812 85.8337 28.1191C84.8556 27.4085 83.7095 27.057 82.3799 27.057H81.761C81.5547 27.057 81.2109 27.057 80.7447 27.057C80.3933 27.057 80.2099 26.9424 80.2099 26.7055C80.2099 26.4992 80.2786 26.3693 80.4085 26.3082C80.5384 26.247 81.0504 26.1477 81.9368 25.9949C83.1517 25.7886 84.1603 25.078 84.9703 23.8554C85.7802 22.6328 86.1852 21.2269 86.1852 19.6375C86.1852 18.0176 85.6962 16.7034 84.7257 15.6871C83.7477 14.6708 82.4793 14.1665 80.9129 14.1665C79.9119 14.1665 79.0255 14.3881 78.2538 14.8313C77.482 15.2745 77.1 15.7941 77.1 16.3824C77.1 16.6499 77.291 16.8103 77.6807 16.8715C79.9501 17.2841 81.0886 18.2621 81.0886 19.798C81.0886 20.5697 80.8517 21.1963 80.3703 21.6853C79.8966 22.1744 79.27 22.4189 78.4983 22.4189C77.4591 22.4189 76.6415 22.1056 76.0455 21.4867C75.4495 20.8677 75.1515 20.0272 75.1515 18.9575C75.1515 17.0701 75.9309 15.5419 77.4973 14.3728C79.0637 13.2038 81.1039 12.623 83.6101 12.623C86.5061 12.623 88.8366 13.2343 90.6093 14.4645C92.3821 15.6871 93.2684 17.2917 93.2684 19.2708C93.2684 20.8372 92.596 22.2431 91.2512 23.481C89.9064 24.7188 88.126 25.5823 85.9101 26.0484L85.9559 26.27C88.0802 26.3005 90.0057 26.8278 91.7173 27.8669C93.9408 29.1812 95.0488 31.0533 95.0488 33.4755Z" fill="black"/>
<path d="M134.622 38.7081C134.622 39.0367 134.515 39.1971 134.309 39.1971C134.072 39.1971 133.926 39.0902 133.865 38.8762C133.804 38.6623 133.751 38.0586 133.69 37.0729C133.659 36.347 133.56 35.8809 133.376 35.667C133.201 35.453 132.811 35.3002 132.223 35.2085L129.609 35.0786V39.4799C129.609 40.3891 129.754 40.924 130.052 41.0845C130.35 41.2449 131.336 41.3443 133.025 41.3672C133.735 41.3672 134.087 41.5124 134.087 41.7875C134.087 42.009 133.346 42.116 131.871 42.116C126.224 42.116 122.549 42.1466 120.837 42.2077C119.982 42.2383 119.393 42.2536 119.065 42.2536C118.53 42.2536 118.27 42.1313 118.27 41.9021C118.27 41.6041 118.713 41.4589 119.584 41.4589C121.426 41.4589 122.457 41.329 122.679 41.0616C122.9 40.7941 123.007 40.3051 123.007 39.6021V35.2162H118.637C115.015 35.2162 112.837 35.1856 112.104 35.1245C111.485 35.0939 111.179 34.964 111.179 34.7271C111.179 34.4902 111.385 34.1082 111.798 33.5733C112.386 32.8321 113.853 30.9677 116.199 27.9648C118.537 24.9695 121.632 21.1795 125.483 16.5949C125.514 16.5338 126.324 15.5481 127.928 13.6225C128.547 12.8584 128.983 12.4688 129.22 12.4688C129.487 12.4688 129.617 12.8202 129.617 13.5309V34.0089C131.42 33.9783 132.559 33.8866 133.032 33.7414C133.33 33.5962 133.499 33.4052 133.544 33.1836C133.59 32.962 133.613 32.3202 133.613 31.2581C133.613 30.196 133.758 29.6687 134.056 29.6687C134.263 29.6687 134.377 29.8674 134.408 30.2647C134.438 30.6621 134.469 32.0146 134.5 34.3221C134.5 36.3929 134.522 37.562 134.568 37.8447C134.599 38.1197 134.622 38.4101 134.622 38.7081ZM123.504 20.8433C122.732 21.638 121.479 23.1891 119.737 25.4967C119.026 26.4137 118.025 27.6974 116.726 29.3555C115.129 31.3651 113.976 32.8551 113.273 33.8331C115.16 33.9477 117.407 34.0089 120.012 34.0089H123.114C123.191 28.3927 123.321 24.0067 123.504 20.8433Z" fill="black"/>
<path d="M177.962 32.7296C177.962 35.6256 176.854 38.0019 174.638 39.8664C172.422 41.7308 169.603 42.6553 166.172 42.6553C163.627 42.6553 161.633 42.1587 160.189 41.173C158.745 40.1873 158.019 38.8195 158.019 37.0697C158.019 36.0076 158.347 35.1518 159.012 34.5023C159.677 33.8528 160.556 33.5243 161.648 33.5243C163.513 33.5243 164.437 34.4259 164.437 36.2292C164.437 37.5282 163.536 38.491 161.732 39.1099C160.991 39.3468 160.624 39.5989 160.624 39.8664C160.624 40.279 161.121 40.7069 162.107 41.15C163.092 41.5932 164.063 41.8148 165.01 41.8148C166.752 41.8148 168.151 41.0202 169.198 39.4232C170.244 37.8262 170.772 35.702 170.772 33.0429C170.772 30.6207 170.298 28.7333 169.35 27.3885C168.403 26.0437 167.073 25.3713 165.362 25.3713C163.681 25.3713 162.023 25.9596 160.395 27.144C160.456 26.3188 160.494 25.2719 160.525 24.0035C160.64 17.6385 160.823 14.2001 161.06 13.6652C161.236 13.2831 162.863 13.1074 165.935 13.138H173.866C174.516 13.138 174.882 12.7559 174.974 11.9842C175.005 11.5715 175.135 11.3652 175.371 11.3652C175.578 11.3652 175.685 11.5563 175.685 11.9383C175.685 14.0396 175.524 15.6595 175.196 16.8133C174.989 17.5545 174.577 18.0435 173.958 18.2727C173.545 18.4179 172.865 18.4943 171.918 18.4943C171.979 18.4943 171.727 18.4943 171.161 18.4943C170.626 18.4943 170.099 18.4943 169.564 18.4943H161.679C161.556 20.1219 161.472 22.4066 161.411 25.3636C163.215 24.4161 165.285 23.9424 167.616 23.9424C170.749 23.9424 173.255 24.7371 175.127 26.3341C177.03 27.9387 177.962 30.0705 177.962 32.7296Z" fill="black"/>
<path d="M193.955 27.1792C193.932 30.5413 193.374 33.9033 192.22 37.1049C191.059 40.2989 189.332 43.34 187.009 45.9303C184.686 48.513 181.79 50.6449 178.55 52.0279C175.31 53.4186 171.765 54.0834 168.258 53.9917C164.75 53.8847 161.289 53.0289 158.156 51.5542C155.031 50.0794 152.212 48.0393 149.843 45.5865C145.098 40.7039 142.133 34.102 141.873 27.1716C141.751 23.7255 142.263 20.2029 143.524 16.9249C144.761 13.6469 146.718 10.6211 149.178 8.09187C151.638 5.56268 154.611 3.50724 157.874 2.10129C161.136 0.687694 164.705 0 168.258 0C171.803 0.0611284 175.364 0.764105 178.596 2.2159C181.843 3.63714 184.724 5.79956 187.032 8.39751C191.685 13.6393 193.962 20.478 193.955 27.1792ZM193.649 27.1792L193.488 24.6959C193.366 23.8783 193.236 23.053 193.083 22.2431C192.885 21.4408 192.625 20.6538 192.403 19.8591C192.136 19.0797 191.785 18.3232 191.471 17.5668C190.073 14.5868 188.017 11.9659 185.611 9.83403C180.751 5.61617 174.546 3.2016 168.258 3.27037C162 3.29329 155.757 5.72315 151.211 10.1397C146.687 14.5409 143.837 20.6996 143.547 27.1869C143.447 30.419 143.913 33.7199 145.136 36.7611C146.328 39.8175 148.192 42.6065 150.546 44.8988C152.907 47.1758 155.757 48.9256 158.806 50.003C161.855 51.0957 165.079 51.5465 168.258 51.4548C171.436 51.3555 174.577 50.706 177.511 49.5293C180.453 48.3602 183.219 46.7021 185.626 44.555C188.033 42.4155 190.088 39.7946 191.487 36.8069C192.9 33.8269 193.657 30.5107 193.649 27.1792Z" fill="black"/>
</svg>
