<svg width="48" height="48" viewBox="0 0 48 48" fill="none" xmlns="http://www.w3.org/2000/svg">
<path d="M25.7583 19.6242C25.7583 19.8692 25.8221 19.9229 26.057 19.9195C27.1006 19.9195 28.1442 19.9195 29.1879 19.9195C29.4429 19.9195 29.5234 19.9766 29.4966 20.2551C29.4026 21.4229 29.2483 22.584 29.1006 23.745C29.0738 23.9766 28.9362 23.9598 28.765 23.9598C27.8758 23.9598 26.9865 23.9598 26.1006 23.9598C25.7919 23.9598 25.7147 24.037 25.7181 24.3424C25.7181 28.0638 25.7181 31.7853 25.7181 35.5101C25.7181 35.8457 25.6442 35.943 25.2986 35.9363C23.906 35.9128 22.5167 35.9363 21.1241 35.9363C20.8557 35.9363 20.7885 35.8692 20.7885 35.6007C20.7885 33.7215 20.7885 31.839 20.7885 29.9598C20.7885 28.0806 20.7885 26.2215 20.7885 24.3558C20.7885 24.0638 20.7348 23.9497 20.4127 23.9632C19.8221 23.9934 19.2281 23.9632 18.6375 23.9632C18.4228 23.9632 18.3523 23.9095 18.3523 23.688C18.3657 22.5538 18.3657 21.4195 18.3523 20.2853C18.3523 20.0403 18.4127 19.9497 18.6879 19.9497C19.2785 19.9497 19.8724 19.9497 20.463 19.9497C20.7449 19.9497 20.7986 19.8625 20.7986 19.6142C20.7986 18.5571 20.7986 17.5034 20.7986 16.4464C20.8254 14.0168 22.2818 12.3893 24.6912 12.1175C26.2181 11.9497 27.755 12.0773 29.2852 12.0403C29.453 12.0403 29.5134 12.094 29.5134 12.2618C29.5134 13.5101 29.5134 14.7618 29.5134 16.0101C29.5134 16.2484 29.3758 16.2048 29.2382 16.2048H26.9966C26.1912 16.2048 25.7483 16.6444 25.7483 17.4363C25.7617 18.1544 25.7751 18.8893 25.7583 19.6242Z" stroke="#C0AD98" stroke-width="2" stroke-miterlimit="10"/>
<path d="M24 42C33.9411 42 42 33.9411 42 24C42 14.0589 33.9411 6 24 6C14.0589 6 6 14.0589 6 24C6 33.9411 14.0589 42 24 42Z" stroke="#C0AD98" stroke-width="2" stroke-miterlimit="10"/>
</svg>
