<svg width="48" height="48" viewBox="0 0 48 48" fill="none" xmlns="http://www.w3.org/2000/svg">
<path d="M31.9314 8H15.6971C11.4461 8 8 11.4461 8 15.6971V31.9314C8 36.1824 11.4461 39.6286 15.6971 39.6286H31.9314C36.1824 39.6286 39.6286 36.1824 39.6286 31.9314V15.6971C39.6286 11.4461 36.1824 8 31.9314 8Z" stroke="#C0AD98" stroke-width="2" stroke-miterlimit="10"/>
<path d="M23.816 31.6441C28.1389 31.6441 31.6434 28.1397 31.6434 23.8167C31.6434 19.4937 28.1389 15.9893 23.816 15.9893C19.493 15.9893 15.9885 19.4937 15.9885 23.8167C15.9885 28.1397 19.493 31.6441 23.816 31.6441Z" stroke="#C0AD98" stroke-width="2" stroke-miterlimit="10"/>
<path d="M33.5873 15.9886C34.661 15.9886 35.5313 15.1182 35.5313 14.0446C35.5313 12.9709 34.661 12.1006 33.5873 12.1006C32.5137 12.1006 31.6433 12.9709 31.6433 14.0446C31.6433 15.1182 32.5137 15.9886 33.5873 15.9886Z" stroke="#C0AD98" stroke-width="2" stroke-miterlimit="10"/>
</svg>
