<svg width="48" height="48" viewBox="0 0 48 48" fill="none" xmlns="http://www.w3.org/2000/svg">
<path d="M39.4052 20.1426H9V42.7894H39.4052V20.1426Z" stroke="#C0AD98" stroke-width="1.5" stroke-linecap="round" stroke-linejoin="round"/>
<path d="M20.7588 20.1426V42.7894" stroke="#C0AD98" stroke-width="1.5" stroke-miterlimit="10"/>
<path d="M27.6467 20.1426V42.7894" stroke="#C0AD98" stroke-width="1.5" stroke-miterlimit="10"/>
<path d="M24.2007 11.7118C23.7966 11.7926 20.5272 12.3694 17.8934 10.0661C16.4983 8.81944 15.6193 7.09665 15.4285 5.23551C16.4403 4.96577 17.5 4.92719 18.5288 5.12262C19.5576 5.31805 20.5292 5.74248 21.3717 6.36447C22.2142 6.98646 22.906 7.79006 23.3957 8.71572C23.8854 9.64138 24.1605 10.6654 24.2007 11.7118V11.7118Z" stroke="#C0AD98" stroke-width="1.5" stroke-miterlimit="10"/>
<path d="M24.2007 11.7118C24.6084 11.7926 27.8741 12.3694 30.5117 10.0661C31.9062 8.8195 32.7841 7.09644 32.9729 5.23551C31.961 4.96577 30.9014 4.92719 29.8726 5.12262C28.8438 5.31805 27.8721 5.74248 27.0296 6.36447C26.1871 6.98646 25.4954 7.79006 25.0057 8.71572C24.516 9.64138 24.2409 10.6654 24.2007 11.7118Z" stroke="#C0AD98" stroke-width="1.5" stroke-miterlimit="10"/>
<path d="M39.4052 20.1428H9L24.3073 12.1641L39.4052 20.1428Z" stroke="#C0AD98" stroke-width="1.5" stroke-linecap="round" stroke-linejoin="round"/>
<path d="M28.0027 20.1291H20.4023L24.2264 12.1504L28.0027 20.1291Z" stroke="#C0AD98" stroke-width="1.5" stroke-linecap="round" stroke-linejoin="round"/>
</svg>
