<svg width="48" height="48" viewBox="0 0 48 48" fill="none" xmlns="http://www.w3.org/2000/svg">
<path d="M23.1445 41.2891C32.6132 41.2891 40.2891 33.6132 40.2891 24.1445C40.2891 14.6759 32.6132 7 23.1445 7C13.6759 7 6 14.6759 6 24.1445C6 33.6132 13.6759 41.2891 23.1445 41.2891Z" stroke="#C0AD98" stroke-width="2" stroke-miterlimit="10"/>
<path d="M33.9962 17.7793C33.9058 17.6531 33.7804 17.5563 33.6354 17.5009C33.4905 17.4454 33.3324 17.4339 33.1809 17.4676C33.2666 17.3066 33.3179 17.2107 33.3727 17.125C33.6434 16.6318 33.6365 16.2961 33.3316 16.0186C33.0268 15.7411 32.626 15.7822 32.256 15.9946C31.7407 16.2703 31.196 16.4875 30.6324 16.642C30.5173 16.6841 30.393 16.6945 30.2725 16.6723C30.152 16.65 30.0397 16.5958 29.9473 16.5153C29.405 16.0721 28.7676 15.7601 28.0848 15.6039C27.4021 15.4476 26.6925 15.4512 26.0114 15.6144C23.7951 16.1351 22.3735 17.8136 22.1337 20.1908C22.1063 20.4512 22.0584 20.4991 21.7912 20.4546C19.1734 20.0458 16.7876 18.7156 15.0635 16.7037C14.4812 16.0392 13.9297 16.1042 13.5426 16.8989C13.2154 17.5341 13.0341 18.2343 13.0122 18.9485C12.9903 19.6626 13.1282 20.3726 13.4159 21.0267C13.4604 21.1328 13.6831 21.2836 13.4159 21.4069C12.95 21.6364 12.9295 22.0406 12.9672 22.4791C13.0532 23.5742 13.5141 24.6061 14.2723 25.401C14.4812 25.6271 14.7141 25.7949 14.4641 26.1546C14.3613 26.3019 14.4641 26.528 14.5155 26.7198C14.8682 27.6847 15.5214 28.5108 16.3789 29.0765C16.5947 29.2204 16.8174 29.3506 17.064 29.5116C15.8467 30.1161 14.4848 30.3688 13.1316 30.2412C12.6212 30.1864 12.3163 30.3782 12.2033 30.7619C12.1442 30.9439 12.1562 31.1415 12.2369 31.315C12.3176 31.4885 12.461 31.625 12.6383 31.697C16.6598 34.0709 20.8595 34.3757 25.0283 32.3102C29.615 30.0391 31.7902 26.0964 32.0574 21.0472C32.0534 20.919 32.0803 20.7918 32.1357 20.6762C32.1912 20.5605 32.2735 20.4599 32.3759 20.3827C32.9802 19.9069 33.5111 19.3449 33.9517 18.7145C34.0602 18.5848 34.1233 18.4232 34.1313 18.2544C34.1393 18.0855 34.0919 17.9187 33.9962 17.7793ZM30.5399 20.8314C30.5399 25.6956 27.2685 31.0188 21.2705 31.9676C19.5826 32.2486 17.8524 32.1313 16.2179 31.6251C16.1323 31.5977 16.0467 31.56 15.8754 31.4915C16.5331 31.2962 17.1188 31.1489 17.6772 30.9263C18.2816 30.6802 18.8562 30.3665 19.3899 29.9911C19.7325 29.7582 19.9586 29.491 19.8352 29.0525C19.7119 28.6141 19.3762 28.5079 18.9686 28.4771C17.9855 28.4051 17.2559 27.8742 16.6256 27.1069C16.8221 27.0896 17.0176 27.0621 17.2113 27.0247C17.3878 27.0019 17.5496 26.9149 17.6659 26.7803C17.7822 26.6457 17.8448 26.4729 17.8416 26.295C17.8601 26.1174 17.8085 25.9396 17.6978 25.7995C17.5871 25.6594 17.4261 25.568 17.249 25.5449C16.4505 25.3723 15.7392 24.922 15.2417 24.274C14.9811 23.9556 14.794 23.5837 14.6936 23.1847C14.9154 23.2085 15.1324 23.265 15.3376 23.3526C15.5174 23.4136 15.7132 23.4085 15.8896 23.3382C16.066 23.2679 16.2116 23.1369 16.3001 22.9689C16.3898 22.7991 16.4102 22.6012 16.3572 22.4167C16.3042 22.2322 16.1819 22.0753 16.0158 21.9789C15.5751 21.6797 15.211 21.281 14.9527 20.8151C14.6945 20.3492 14.5494 19.8291 14.5292 19.2968C14.5146 19.0147 14.5837 18.7347 14.7279 18.4918C16.0367 19.7712 17.5992 20.7619 19.3146 21.4C20.4542 21.8225 21.6501 22.0741 22.8634 22.1468C23.4697 22.1845 23.8122 21.7768 23.7129 21.1602C23.3703 19.0433 24.5967 17.3169 26.6828 17.0257C27.1692 16.9562 27.6651 16.9978 28.1332 17.1473C28.6012 17.2968 29.0294 17.5503 29.3855 17.8889C29.6732 18.1458 29.9438 18.4027 30.3857 18.3068C30.0706 19.033 30.2076 19.3756 30.9304 19.677C30.5056 19.9682 30.5399 20.3964 30.5399 20.8314Z" fill="#C0AD98"/>
</svg>
