<svg width="48" height="48" viewBox="0 0 48 48" fill="none" xmlns="http://www.w3.org/2000/svg">
<path d="M35.2254 18.6113C35.0509 18.1108 34.7537 17.6621 34.3609 17.3063C33.9515 16.9587 33.4612 16.7197 32.9352 16.6114C30.6123 16.0763 22.3451 15.1628 14.5706 16.5265C13.732 16.628 12.9519 17.0083 12.3554 17.6064C11.9447 18.0863 11.6738 18.6697 11.5724 19.2931C11.4908 19.6912 10.4468 24.934 11.605 29.8114C11.729 30.4766 12.0481 31.0899 12.5217 31.5731C13.0205 32.0183 13.6407 32.3045 14.3031 32.3953C20.9814 33.5731 31.8781 32.4899 32.2468 32.454C33.0309 32.4144 33.7804 32.1187 34.3804 31.6123C34.7324 31.2749 35.0015 30.8606 35.1667 30.4019C36.3836 27.296 36.2107 21.1364 35.2254 18.6113ZM27.663 24.7904C25.4314 26.1324 23.1966 27.4722 20.9585 28.8098C20.6617 28.9893 20.4626 28.8653 20.4626 28.5064C20.4626 27.172 20.4626 25.8344 20.4626 24.4968V20.4872C20.4626 20.0729 20.6454 19.9619 20.9944 20.161C23.2151 21.492 25.4358 22.8231 27.6564 24.1542C27.9892 24.363 27.9925 24.5947 27.663 24.7904V24.7904Z" stroke="#C0AD98" stroke-width="2" stroke-miterlimit="10"/>
<path d="M23.5 42C33.165 42 41 34.165 41 24.5C41 14.835 33.165 7 23.5 7C13.835 7 6 14.835 6 24.5C6 34.165 13.835 42 23.5 42Z" stroke="#C0AD98" stroke-width="2" stroke-miterlimit="10"/>
</svg>
